<mxfile host="app.diagrams.net" modified="2022-07-11T00:48:27.401Z" agent="5.0 (Windows NT 10.0; Win64; x64) AppleWebKit/537.36 (KHTML, like Gecko) Chrome/102.0.0.0 Safari/537.36" etag="0Dq-QvIjFYpI00nyQds8" version="20.0.4" type="github" pages="4">
  <diagram name="Lustre" id="M7yLaQcp8DG9QWbYyY-x">
    <mxGraphModel dx="1422" dy="762" grid="1" gridSize="10" guides="1" tooltips="1" connect="1" arrows="1" fold="1" page="1" pageScale="1" pageWidth="827" pageHeight="1169" math="0" shadow="0">
      <root>
        <mxCell id="Ua6ocKQZ1BY9bdP9Vu75-0" />
        <mxCell id="Ua6ocKQZ1BY9bdP9Vu75-1" parent="Ua6ocKQZ1BY9bdP9Vu75-0" />
        <mxCell id="Ua6ocKQZ1BY9bdP9Vu75-2" value="&amp;nbsp;Node #1&amp;nbsp;&lt;br&gt;" style="rounded=0;whiteSpace=wrap;html=1;align=left;verticalAlign=top;" vertex="1" parent="Ua6ocKQZ1BY9bdP9Vu75-1">
          <mxGeometry x="80" y="330" width="250" height="270" as="geometry" />
        </mxCell>
        <mxCell id="Ua6ocKQZ1BY9bdP9Vu75-3" value="&amp;nbsp;Management Server(MGS)" style="rounded=0;whiteSpace=wrap;html=1;align=left;verticalAlign=top;fillColor=#CCFFCC;strokeColor=#36393d;" vertex="1" parent="Ua6ocKQZ1BY9bdP9Vu75-1">
          <mxGeometry x="105" y="410" width="200" height="120" as="geometry" />
        </mxCell>
        <mxCell id="Ua6ocKQZ1BY9bdP9Vu75-4" value="&amp;nbsp;Management Target(MGT)" style="rounded=0;whiteSpace=wrap;html=1;align=left;verticalAlign=top;fillColor=#AA72FF;strokeColor=#9673a6;" vertex="1" parent="Ua6ocKQZ1BY9bdP9Vu75-1">
          <mxGeometry x="128.5" y="440" width="155" height="80" as="geometry" />
        </mxCell>
        <mxCell id="Ua6ocKQZ1BY9bdP9Vu75-5" value="&lt;div style=&quot;text-align: center;&quot;&gt;&lt;span style=&quot;background-color: initial;&quot;&gt;&amp;nbsp;Device #1&amp;nbsp;&lt;/span&gt;&lt;span style=&quot;background-color: initial;&quot;&gt;(SSD)&lt;/span&gt;&lt;/div&gt;" style="rounded=0;whiteSpace=wrap;html=1;align=left;verticalAlign=top;fillColor=#f8cecc;strokeColor=#b85450;" vertex="1" parent="Ua6ocKQZ1BY9bdP9Vu75-1">
          <mxGeometry x="155" y="470" width="100" height="32.5" as="geometry" />
        </mxCell>
        <mxCell id="Ua6ocKQZ1BY9bdP9Vu75-6" value="&amp;nbsp;Object Storage Servers(OSS) #4" style="rounded=0;whiteSpace=wrap;html=1;align=left;verticalAlign=top;fillColor=#dae8fc;strokeColor=#6c8ebf;" vertex="1" parent="Ua6ocKQZ1BY9bdP9Vu75-1">
          <mxGeometry x="448.5" y="670" width="400" height="180" as="geometry" />
        </mxCell>
        <mxCell id="Ua6ocKQZ1BY9bdP9Vu75-7" value="&amp;nbsp;Object Storage Servers(OSS) #3" style="rounded=0;whiteSpace=wrap;html=1;align=left;verticalAlign=top;fillColor=#dae8fc;strokeColor=#6c8ebf;" vertex="1" parent="Ua6ocKQZ1BY9bdP9Vu75-1">
          <mxGeometry x="418.5" y="700" width="400" height="180" as="geometry" />
        </mxCell>
        <mxCell id="Ua6ocKQZ1BY9bdP9Vu75-8" value="&amp;nbsp;Object Storage Servers(OSS) #2" style="rounded=0;whiteSpace=wrap;html=1;align=left;verticalAlign=top;fillColor=#dae8fc;strokeColor=#6c8ebf;" vertex="1" parent="Ua6ocKQZ1BY9bdP9Vu75-1">
          <mxGeometry x="388.5" y="730" width="400" height="180" as="geometry" />
        </mxCell>
        <mxCell id="fzEp9_sUrrtG1WN1y02f-19" style="edgeStyle=orthogonalEdgeStyle;rounded=0;jumpStyle=arc;orthogonalLoop=1;jettySize=auto;html=1;exitX=0;exitY=0.5;exitDx=0;exitDy=0;endArrow=none;endFill=0;" edge="1" parent="Ua6ocKQZ1BY9bdP9Vu75-1" source="Ua6ocKQZ1BY9bdP9Vu75-10" target="Ua6ocKQZ1BY9bdP9Vu75-20">
          <mxGeometry relative="1" as="geometry" />
        </mxCell>
        <mxCell id="Ua6ocKQZ1BY9bdP9Vu75-10" value="&amp;nbsp;Object Storage Servers(OSS) #1" style="rounded=0;whiteSpace=wrap;html=1;align=left;verticalAlign=top;fillColor=#dae8fc;strokeColor=#6c8ebf;" vertex="1" parent="Ua6ocKQZ1BY9bdP9Vu75-1">
          <mxGeometry x="360" y="760" width="400" height="180" as="geometry" />
        </mxCell>
        <mxCell id="Ua6ocKQZ1BY9bdP9Vu75-11" value="&amp;nbsp;Object Storage Target(OST) #1&amp;nbsp; &amp;nbsp; &amp;nbsp; &amp;nbsp; &amp;nbsp; &amp;nbsp; &amp;nbsp; &amp;nbsp; &amp;nbsp; &amp;nbsp; &amp;nbsp; &amp;nbsp; &amp;nbsp; &amp;nbsp; &amp;nbsp; &amp;nbsp; [ZFS RAIDZ2]&amp;nbsp;" style="rounded=0;whiteSpace=wrap;html=1;align=left;verticalAlign=top;fillColor=#e1d5e7;strokeColor=#9673a6;" vertex="1" parent="Ua6ocKQZ1BY9bdP9Vu75-1">
          <mxGeometry x="380" y="810" width="360" height="120" as="geometry" />
        </mxCell>
        <mxCell id="Ua6ocKQZ1BY9bdP9Vu75-12" value="&amp;nbsp;Device #1" style="rounded=0;whiteSpace=wrap;html=1;align=left;verticalAlign=top;fillColor=#f8cecc;strokeColor=#b85450;" vertex="1" parent="Ua6ocKQZ1BY9bdP9Vu75-1">
          <mxGeometry x="410" y="850" width="69" height="30" as="geometry" />
        </mxCell>
        <mxCell id="Ua6ocKQZ1BY9bdP9Vu75-13" value="&amp;nbsp;Device #2" style="rounded=0;whiteSpace=wrap;html=1;align=left;verticalAlign=top;fillColor=#f8cecc;strokeColor=#b85450;" vertex="1" parent="Ua6ocKQZ1BY9bdP9Vu75-1">
          <mxGeometry x="489" y="850" width="69" height="30" as="geometry" />
        </mxCell>
        <mxCell id="Ua6ocKQZ1BY9bdP9Vu75-14" value="&amp;nbsp;Device #3" style="rounded=0;whiteSpace=wrap;html=1;align=left;verticalAlign=top;fillColor=#f8cecc;strokeColor=#b85450;" vertex="1" parent="Ua6ocKQZ1BY9bdP9Vu75-1">
          <mxGeometry x="569" y="850" width="69" height="30" as="geometry" />
        </mxCell>
        <mxCell id="Ua6ocKQZ1BY9bdP9Vu75-15" value="&amp;nbsp;Device #4" style="rounded=0;whiteSpace=wrap;html=1;align=left;verticalAlign=top;fillColor=#f8cecc;strokeColor=#b85450;" vertex="1" parent="Ua6ocKQZ1BY9bdP9Vu75-1">
          <mxGeometry x="649" y="850" width="69" height="30" as="geometry" />
        </mxCell>
        <mxCell id="Ua6ocKQZ1BY9bdP9Vu75-16" value="&amp;nbsp;Device #5" style="rounded=0;whiteSpace=wrap;html=1;align=left;verticalAlign=top;fillColor=#f8cecc;strokeColor=#b85450;" vertex="1" parent="Ua6ocKQZ1BY9bdP9Vu75-1">
          <mxGeometry x="410" y="890" width="69" height="30" as="geometry" />
        </mxCell>
        <mxCell id="Ua6ocKQZ1BY9bdP9Vu75-17" value="&amp;nbsp;Device #6" style="rounded=0;whiteSpace=wrap;html=1;align=left;verticalAlign=top;fillColor=#f8cecc;strokeColor=#b85450;" vertex="1" parent="Ua6ocKQZ1BY9bdP9Vu75-1">
          <mxGeometry x="489" y="890" width="69" height="30" as="geometry" />
        </mxCell>
        <mxCell id="Ua6ocKQZ1BY9bdP9Vu75-18" value="&amp;nbsp;Device #7" style="rounded=0;whiteSpace=wrap;html=1;align=left;verticalAlign=top;fillColor=#f8cecc;strokeColor=#b85450;" vertex="1" parent="Ua6ocKQZ1BY9bdP9Vu75-1">
          <mxGeometry x="569" y="890" width="69" height="30" as="geometry" />
        </mxCell>
        <mxCell id="Ua6ocKQZ1BY9bdP9Vu75-19" value="&amp;nbsp;Device #8" style="rounded=0;whiteSpace=wrap;html=1;align=left;verticalAlign=top;fillColor=#f8cecc;strokeColor=#b85450;" vertex="1" parent="Ua6ocKQZ1BY9bdP9Vu75-1">
          <mxGeometry x="649" y="890" width="69" height="30" as="geometry" />
        </mxCell>
        <mxCell id="Ua6ocKQZ1BY9bdP9Vu75-20" value="&amp;nbsp;Object Storage Servers(OSS) #1" style="rounded=0;whiteSpace=wrap;html=1;align=left;verticalAlign=top;fillColor=#dae8fc;strokeColor=#6c8ebf;" vertex="1" parent="Ua6ocKQZ1BY9bdP9Vu75-1">
          <mxGeometry x="105" y="540" width="200" height="30" as="geometry" />
        </mxCell>
        <mxCell id="Ua6ocKQZ1BY9bdP9Vu75-21" value="&amp;nbsp;Node #3" style="rounded=0;whiteSpace=wrap;html=1;align=left;verticalAlign=top;" vertex="1" parent="Ua6ocKQZ1BY9bdP9Vu75-1">
          <mxGeometry x="660" y="330" width="230" height="270" as="geometry" />
        </mxCell>
        <mxCell id="Ua6ocKQZ1BY9bdP9Vu75-22" value="&amp;nbsp;Object Storage Servers(OSS) #3" style="rounded=0;whiteSpace=wrap;html=1;align=left;verticalAlign=top;fillColor=#dae8fc;strokeColor=#6c8ebf;" vertex="1" parent="Ua6ocKQZ1BY9bdP9Vu75-1">
          <mxGeometry x="682.5" y="540" width="185" height="30" as="geometry" />
        </mxCell>
        <mxCell id="Ua6ocKQZ1BY9bdP9Vu75-23" value="&amp;nbsp;Node #4" style="rounded=0;whiteSpace=wrap;html=1;align=left;verticalAlign=top;" vertex="1" parent="Ua6ocKQZ1BY9bdP9Vu75-1">
          <mxGeometry x="940" y="330" width="230" height="270" as="geometry" />
        </mxCell>
        <mxCell id="Ua6ocKQZ1BY9bdP9Vu75-24" value="&amp;nbsp;Object Storage Servers(OSS) #4" style="rounded=0;whiteSpace=wrap;html=1;align=left;verticalAlign=top;fillColor=#dae8fc;strokeColor=#6c8ebf;" vertex="1" parent="Ua6ocKQZ1BY9bdP9Vu75-1">
          <mxGeometry x="960" y="540" width="190" height="30" as="geometry" />
        </mxCell>
        <mxCell id="Ua6ocKQZ1BY9bdP9Vu75-26" value="&amp;nbsp;Lustre Client Server" style="rounded=0;whiteSpace=wrap;html=1;align=center;verticalAlign=top;fillColor=#d5e8d4;strokeColor=#82b366;" vertex="1" parent="Ua6ocKQZ1BY9bdP9Vu75-1">
          <mxGeometry x="105" y="370" width="200" height="25" as="geometry" />
        </mxCell>
        <mxCell id="Ua6ocKQZ1BY9bdP9Vu75-27" value="&amp;nbsp;Node #2" style="rounded=0;whiteSpace=wrap;html=1;align=left;verticalAlign=top;" vertex="1" parent="Ua6ocKQZ1BY9bdP9Vu75-1">
          <mxGeometry x="380" y="330" width="240" height="270" as="geometry" />
        </mxCell>
        <mxCell id="Ua6ocKQZ1BY9bdP9Vu75-28" value="&amp;nbsp;Meta Data Server(MDS)" style="rounded=0;whiteSpace=wrap;html=1;align=left;verticalAlign=top;fillColor=#99FFCC;strokeColor=#36393d;" vertex="1" parent="Ua6ocKQZ1BY9bdP9Vu75-1">
          <mxGeometry x="405" y="407.5" width="190" height="122.5" as="geometry" />
        </mxCell>
        <mxCell id="Ua6ocKQZ1BY9bdP9Vu75-29" value="&amp;nbsp;Object Storage Servers(OSS) #2" style="rounded=0;whiteSpace=wrap;html=1;align=left;verticalAlign=top;fillColor=#dae8fc;strokeColor=#6c8ebf;" vertex="1" parent="Ua6ocKQZ1BY9bdP9Vu75-1">
          <mxGeometry x="405" y="540" width="190" height="30" as="geometry" />
        </mxCell>
        <mxCell id="Ua6ocKQZ1BY9bdP9Vu75-30" value="&amp;nbsp;Meta Data Target(MDT)" style="rounded=0;whiteSpace=wrap;html=1;align=left;verticalAlign=top;fillColor=#F499FF;strokeColor=#9673a6;" vertex="1" parent="Ua6ocKQZ1BY9bdP9Vu75-1">
          <mxGeometry x="420" y="440" width="155" height="77.5" as="geometry" />
        </mxCell>
        <mxCell id="Ua6ocKQZ1BY9bdP9Vu75-31" value="&lt;div style=&quot;text-align: center;&quot;&gt;&lt;span style=&quot;background-color: initial;&quot;&gt;&amp;nbsp;Device #1&amp;nbsp;&lt;/span&gt;&lt;span style=&quot;background-color: initial;&quot;&gt;(SSD)&lt;/span&gt;&lt;/div&gt;" style="rounded=0;whiteSpace=wrap;html=1;align=left;verticalAlign=top;fillColor=#f8cecc;strokeColor=#b85450;" vertex="1" parent="Ua6ocKQZ1BY9bdP9Vu75-1">
          <mxGeometry x="443.88" y="471.25" width="112.25" height="30" as="geometry" />
        </mxCell>
        <mxCell id="Ua6ocKQZ1BY9bdP9Vu75-34" value="&amp;nbsp;Lustre Client Server" style="rounded=0;whiteSpace=wrap;html=1;align=center;verticalAlign=top;fillColor=#d5e8d4;strokeColor=#82b366;" vertex="1" parent="Ua6ocKQZ1BY9bdP9Vu75-1">
          <mxGeometry x="215" y="20" width="820" height="160" as="geometry" />
        </mxCell>
        <mxCell id="Ua6ocKQZ1BY9bdP9Vu75-35" value="Logical Volume #1" style="rounded=0;whiteSpace=wrap;html=1;align=center;verticalAlign=top;fillColor=#e1d5e7;strokeColor=#9673a6;" vertex="1" parent="Ua6ocKQZ1BY9bdP9Vu75-1">
          <mxGeometry x="235.57" y="60" width="769.43" height="100" as="geometry" />
        </mxCell>
        <mxCell id="fzEp9_sUrrtG1WN1y02f-7" style="edgeStyle=orthogonalEdgeStyle;rounded=0;jumpStyle=arc;orthogonalLoop=1;jettySize=auto;html=1;exitX=0.45;exitY=1.033;exitDx=0;exitDy=0;exitPerimeter=0;strokeWidth=2;fillColor=#008a00;strokeColor=#005700;" edge="1" parent="Ua6ocKQZ1BY9bdP9Vu75-1" source="fzEp9_sUrrtG1WN1y02f-10" target="Ua6ocKQZ1BY9bdP9Vu75-40">
          <mxGeometry relative="1" as="geometry">
            <mxPoint x="184.25" y="140" as="sourcePoint" />
            <Array as="points">
              <mxPoint x="319" y="270" />
              <mxPoint x="498" y="270" />
            </Array>
          </mxGeometry>
        </mxCell>
        <mxCell id="Ua6ocKQZ1BY9bdP9Vu75-37" value="Normal" style="shape=process;whiteSpace=wrap;html=1;backgroundOutline=1;fontSize=12;" vertex="1" parent="Ua6ocKQZ1BY9bdP9Vu75-1">
          <mxGeometry x="413.5" y="100" width="120" height="40" as="geometry" />
        </mxCell>
        <mxCell id="Ua6ocKQZ1BY9bdP9Vu75-38" value="Stripe" style="shape=process;whiteSpace=wrap;html=1;backgroundOutline=1;fontSize=12;" vertex="1" parent="Ua6ocKQZ1BY9bdP9Vu75-1">
          <mxGeometry x="564" y="100" width="120" height="40" as="geometry" />
        </mxCell>
        <mxCell id="Ua6ocKQZ1BY9bdP9Vu75-39" value="DoM" style="shape=process;whiteSpace=wrap;html=1;backgroundOutline=1;fontSize=12;" vertex="1" parent="Ua6ocKQZ1BY9bdP9Vu75-1">
          <mxGeometry x="710" y="100" width="120" height="40" as="geometry" />
        </mxCell>
        <mxCell id="Ua6ocKQZ1BY9bdP9Vu75-40" value="HSM Daemon&lt;br&gt;Archive #1" style="shape=process;whiteSpace=wrap;html=1;backgroundOutline=1;fontSize=12;" vertex="1" parent="Ua6ocKQZ1BY9bdP9Vu75-1">
          <mxGeometry x="405" y="355" width="185" height="40" as="geometry" />
        </mxCell>
        <mxCell id="Ua6ocKQZ1BY9bdP9Vu75-41" value="&amp;nbsp;NFS Server" style="rounded=0;whiteSpace=wrap;html=1;align=left;verticalAlign=top;fillColor=#ffff88;strokeColor=#36393d;" vertex="1" parent="Ua6ocKQZ1BY9bdP9Vu75-1">
          <mxGeometry x="685" y="410" width="185" height="100" as="geometry" />
        </mxCell>
        <mxCell id="fzEp9_sUrrtG1WN1y02f-15" style="edgeStyle=orthogonalEdgeStyle;rounded=0;jumpStyle=arc;orthogonalLoop=1;jettySize=auto;html=1;exitX=0.5;exitY=1;exitDx=0;exitDy=0;entryX=0.5;entryY=0;entryDx=0;entryDy=0;" edge="1" parent="Ua6ocKQZ1BY9bdP9Vu75-1" source="Ua6ocKQZ1BY9bdP9Vu75-42" target="fzEp9_sUrrtG1WN1y02f-14">
          <mxGeometry relative="1" as="geometry" />
        </mxCell>
        <mxCell id="Ua6ocKQZ1BY9bdP9Vu75-42" value="HSM Daemon&lt;br&gt;Archive #2" style="shape=process;whiteSpace=wrap;html=1;backgroundOutline=1;fontSize=12;" vertex="1" parent="Ua6ocKQZ1BY9bdP9Vu75-1">
          <mxGeometry x="685" y="355" width="184" height="40" as="geometry" />
        </mxCell>
        <mxCell id="Ua6ocKQZ1BY9bdP9Vu75-45" value="NFS Client" style="rounded=0;whiteSpace=wrap;html=1;align=left;verticalAlign=top;fillColor=#ffff88;strokeColor=#36393d;" vertex="1" parent="Ua6ocKQZ1BY9bdP9Vu75-1">
          <mxGeometry x="960" y="405" width="190" height="110" as="geometry" />
        </mxCell>
        <mxCell id="fzEp9_sUrrtG1WN1y02f-8" style="edgeStyle=orthogonalEdgeStyle;rounded=0;jumpStyle=arc;orthogonalLoop=1;jettySize=auto;html=1;exitX=0.5;exitY=1;exitDx=0;exitDy=0;entryX=0.5;entryY=0;entryDx=0;entryDy=0;strokeWidth=2;fillColor=#a0522d;strokeColor=#6D1F00;" edge="1" parent="Ua6ocKQZ1BY9bdP9Vu75-1" source="fzEp9_sUrrtG1WN1y02f-11" target="Ua6ocKQZ1BY9bdP9Vu75-42">
          <mxGeometry relative="1" as="geometry">
            <mxPoint x="790" y="140" as="sourcePoint" />
            <Array as="points">
              <mxPoint x="925" y="270" />
              <mxPoint x="777" y="270" />
            </Array>
          </mxGeometry>
        </mxCell>
        <mxCell id="fzEp9_sUrrtG1WN1y02f-10" value="HSM File #1&lt;br&gt;Archive #1" style="shape=parallelogram;perimeter=parallelogramPerimeter;whiteSpace=wrap;html=1;fixedSize=1;" vertex="1" parent="Ua6ocKQZ1BY9bdP9Vu75-1">
          <mxGeometry x="265" y="90" width="120" height="60" as="geometry" />
        </mxCell>
        <mxCell id="fzEp9_sUrrtG1WN1y02f-11" value="HSM File #2&lt;br&gt;Archive #2" style="shape=parallelogram;perimeter=parallelogramPerimeter;whiteSpace=wrap;html=1;fixedSize=1;" vertex="1" parent="Ua6ocKQZ1BY9bdP9Vu75-1">
          <mxGeometry x="865" y="90" width="120" height="60" as="geometry" />
        </mxCell>
        <mxCell id="Ua6ocKQZ1BY9bdP9Vu75-47" value="&lt;font style=&quot;font-size: 12px;&quot;&gt;&lt;br&gt;Lustre FS&lt;/font&gt;" style="rounded=0;whiteSpace=wrap;html=1;align=center;verticalAlign=top;fillColor=#fff2cc;strokeColor=#d6b656;" vertex="1" parent="Ua6ocKQZ1BY9bdP9Vu75-1">
          <mxGeometry x="80" y="200" width="1090" height="50" as="geometry" />
        </mxCell>
        <mxCell id="Ua6ocKQZ1BY9bdP9Vu75-46" value="Infiniband / Ethernet Network (RDMA/TCP)" style="rounded=0;whiteSpace=wrap;html=1;fillColor=#C563D8;strokeColor=#A50040;fontColor=#ffffff;" vertex="1" parent="Ua6ocKQZ1BY9bdP9Vu75-1">
          <mxGeometry x="80" y="280" width="1090" height="21" as="geometry" />
        </mxCell>
        <mxCell id="fzEp9_sUrrtG1WN1y02f-18" style="edgeStyle=orthogonalEdgeStyle;rounded=0;jumpStyle=arc;orthogonalLoop=1;jettySize=auto;html=1;exitX=1;exitY=0.5;exitDx=0;exitDy=0;entryX=0;entryY=0.5;entryDx=0;entryDy=0;" edge="1" parent="Ua6ocKQZ1BY9bdP9Vu75-1" source="fzEp9_sUrrtG1WN1y02f-14" target="fzEp9_sUrrtG1WN1y02f-17">
          <mxGeometry relative="1" as="geometry" />
        </mxCell>
        <mxCell id="fzEp9_sUrrtG1WN1y02f-14" value="HSM File #2&lt;br&gt;Archive #2" style="shape=parallelogram;perimeter=parallelogramPerimeter;whiteSpace=wrap;html=1;fixedSize=1;" vertex="1" parent="Ua6ocKQZ1BY9bdP9Vu75-1">
          <mxGeometry x="717" y="438.75" width="120" height="60" as="geometry" />
        </mxCell>
        <mxCell id="fzEp9_sUrrtG1WN1y02f-17" value="HSM File #2&lt;br&gt;Archive #2" style="shape=parallelogram;perimeter=parallelogramPerimeter;whiteSpace=wrap;html=1;fixedSize=1;" vertex="1" parent="Ua6ocKQZ1BY9bdP9Vu75-1">
          <mxGeometry x="995" y="438.75" width="120" height="60" as="geometry" />
        </mxCell>
        <mxCell id="fzEp9_sUrrtG1WN1y02f-23" style="edgeStyle=orthogonalEdgeStyle;rounded=0;jumpStyle=arc;orthogonalLoop=1;jettySize=auto;html=1;exitX=1;exitY=0.5;exitDx=0;exitDy=0;endArrow=none;endFill=0;" edge="1" parent="Ua6ocKQZ1BY9bdP9Vu75-1" source="Ua6ocKQZ1BY9bdP9Vu75-8" target="Ua6ocKQZ1BY9bdP9Vu75-29">
          <mxGeometry relative="1" as="geometry">
            <Array as="points">
              <mxPoint x="900" y="820" />
              <mxPoint x="900" y="650" />
              <mxPoint x="500" y="650" />
            </Array>
          </mxGeometry>
        </mxCell>
        <mxCell id="fzEp9_sUrrtG1WN1y02f-21" style="edgeStyle=orthogonalEdgeStyle;rounded=0;jumpStyle=arc;orthogonalLoop=1;jettySize=auto;html=1;exitX=1;exitY=0.5;exitDx=0;exitDy=0;endArrow=none;endFill=0;" edge="1" parent="Ua6ocKQZ1BY9bdP9Vu75-1" source="Ua6ocKQZ1BY9bdP9Vu75-7" target="Ua6ocKQZ1BY9bdP9Vu75-22">
          <mxGeometry relative="1" as="geometry">
            <Array as="points">
              <mxPoint x="940" y="790" />
              <mxPoint x="940" y="640" />
              <mxPoint x="775" y="640" />
            </Array>
          </mxGeometry>
        </mxCell>
        <mxCell id="fzEp9_sUrrtG1WN1y02f-22" style="edgeStyle=orthogonalEdgeStyle;rounded=0;jumpStyle=arc;orthogonalLoop=1;jettySize=auto;html=1;exitX=1;exitY=0.5;exitDx=0;exitDy=0;endArrow=none;endFill=0;" edge="1" parent="Ua6ocKQZ1BY9bdP9Vu75-1" source="Ua6ocKQZ1BY9bdP9Vu75-6" target="Ua6ocKQZ1BY9bdP9Vu75-24">
          <mxGeometry relative="1" as="geometry" />
        </mxCell>
      </root>
    </mxGraphModel>
  </diagram>
  <diagram name="Lustre-color" id="nRPbOaF_PP1t59022BLb">
    <mxGraphModel dx="1955" dy="896" grid="1" gridSize="10" guides="1" tooltips="1" connect="1" arrows="1" fold="1" page="1" pageScale="1" pageWidth="827" pageHeight="1169" math="0" shadow="0">
      <root>
        <mxCell id="0J1x9r_SG5u2ioGs7Srl-0" />
        <mxCell id="0J1x9r_SG5u2ioGs7Srl-1" parent="0J1x9r_SG5u2ioGs7Srl-0" />
        <mxCell id="8Py96KEAhmwajGARR91--0" value="&amp;nbsp;NFS Server" style="rounded=0;whiteSpace=wrap;html=1;align=left;verticalAlign=top;fillColor=#ffff88;strokeColor=#36393d;" vertex="1" parent="0J1x9r_SG5u2ioGs7Srl-1">
          <mxGeometry x="1220" y="330" width="220" height="270" as="geometry" />
        </mxCell>
        <mxCell id="0J1x9r_SG5u2ioGs7Srl-2" value="&amp;nbsp;Node #1&amp;nbsp;&lt;br&gt;" style="rounded=0;whiteSpace=wrap;html=1;align=left;verticalAlign=top;" vertex="1" parent="0J1x9r_SG5u2ioGs7Srl-1">
          <mxGeometry x="80" y="330" width="250" height="270" as="geometry" />
        </mxCell>
        <mxCell id="0J1x9r_SG5u2ioGs7Srl-3" value="&amp;nbsp;Management Server(MGS)" style="rounded=0;whiteSpace=wrap;html=1;align=left;verticalAlign=top;fillColor=#DAE8FC;strokeColor=#36393d;" vertex="1" parent="0J1x9r_SG5u2ioGs7Srl-1">
          <mxGeometry x="105" y="410" width="200" height="120" as="geometry" />
        </mxCell>
        <mxCell id="0J1x9r_SG5u2ioGs7Srl-4" value="&amp;nbsp;Management Target(MGT)" style="rounded=0;whiteSpace=wrap;html=1;align=left;verticalAlign=top;fillColor=#E1D5E7;strokeColor=#9673a6;" vertex="1" parent="0J1x9r_SG5u2ioGs7Srl-1">
          <mxGeometry x="128.5" y="440" width="155" height="80" as="geometry" />
        </mxCell>
        <mxCell id="0J1x9r_SG5u2ioGs7Srl-5" value="&lt;div style=&quot;text-align: center;&quot;&gt;&lt;span style=&quot;background-color: initial;&quot;&gt;&amp;nbsp;Device #1&amp;nbsp;&lt;/span&gt;&lt;span style=&quot;background-color: initial;&quot;&gt;(SSD)&lt;/span&gt;&lt;/div&gt;" style="rounded=0;whiteSpace=wrap;html=1;align=left;verticalAlign=top;fillColor=#f8cecc;strokeColor=#b85450;" vertex="1" parent="0J1x9r_SG5u2ioGs7Srl-1">
          <mxGeometry x="155" y="470" width="100" height="32.5" as="geometry" />
        </mxCell>
        <mxCell id="0J1x9r_SG5u2ioGs7Srl-6" value="&amp;nbsp;Object Storage Servers(OSS) #4" style="rounded=0;whiteSpace=wrap;html=1;align=left;verticalAlign=top;fillColor=#dae8fc;strokeColor=#6c8ebf;" vertex="1" parent="0J1x9r_SG5u2ioGs7Srl-1">
          <mxGeometry x="458.5" y="660" width="400" height="180" as="geometry" />
        </mxCell>
        <mxCell id="0J1x9r_SG5u2ioGs7Srl-7" value="&amp;nbsp;Object Storage Servers(OSS) #3" style="rounded=0;whiteSpace=wrap;html=1;align=left;verticalAlign=top;fillColor=#dae8fc;strokeColor=#6c8ebf;" vertex="1" parent="0J1x9r_SG5u2ioGs7Srl-1">
          <mxGeometry x="428.5" y="690" width="400" height="180" as="geometry" />
        </mxCell>
        <mxCell id="0J1x9r_SG5u2ioGs7Srl-8" value="&amp;nbsp;Object Storage Servers(OSS) #2" style="rounded=0;whiteSpace=wrap;html=1;align=left;verticalAlign=top;fillColor=#dae8fc;strokeColor=#6c8ebf;" vertex="1" parent="0J1x9r_SG5u2ioGs7Srl-1">
          <mxGeometry x="398.5" y="720" width="400" height="180" as="geometry" />
        </mxCell>
        <mxCell id="0J1x9r_SG5u2ioGs7Srl-9" style="edgeStyle=orthogonalEdgeStyle;rounded=0;jumpStyle=arc;orthogonalLoop=1;jettySize=auto;html=1;exitX=0;exitY=0.5;exitDx=0;exitDy=0;endArrow=none;endFill=0;" edge="1" parent="0J1x9r_SG5u2ioGs7Srl-1" source="0J1x9r_SG5u2ioGs7Srl-10" target="0J1x9r_SG5u2ioGs7Srl-20">
          <mxGeometry relative="1" as="geometry" />
        </mxCell>
        <mxCell id="0J1x9r_SG5u2ioGs7Srl-10" value="&amp;nbsp;Object Storage Servers(OSS) #1" style="rounded=0;whiteSpace=wrap;html=1;align=left;verticalAlign=top;fillColor=#dae8fc;strokeColor=#6c8ebf;" vertex="1" parent="0J1x9r_SG5u2ioGs7Srl-1">
          <mxGeometry x="370" y="750" width="400" height="180" as="geometry" />
        </mxCell>
        <mxCell id="0J1x9r_SG5u2ioGs7Srl-11" value="&amp;nbsp;Object Storage Target(OST) #1&amp;nbsp; &amp;nbsp; &amp;nbsp; &amp;nbsp; &amp;nbsp; &amp;nbsp; &amp;nbsp; &amp;nbsp; &amp;nbsp; &amp;nbsp; &amp;nbsp; &amp;nbsp; &amp;nbsp; &amp;nbsp; &amp;nbsp; &amp;nbsp; [ZFS RAIDZ2]&amp;nbsp;" style="rounded=0;whiteSpace=wrap;html=1;align=left;verticalAlign=top;fillColor=#e1d5e7;strokeColor=#9673a6;" vertex="1" parent="0J1x9r_SG5u2ioGs7Srl-1">
          <mxGeometry x="390" y="800" width="360" height="120" as="geometry" />
        </mxCell>
        <mxCell id="0J1x9r_SG5u2ioGs7Srl-12" value="&amp;nbsp;Device #1" style="rounded=0;whiteSpace=wrap;html=1;align=left;verticalAlign=top;fillColor=#f8cecc;strokeColor=#b85450;" vertex="1" parent="0J1x9r_SG5u2ioGs7Srl-1">
          <mxGeometry x="420" y="840" width="69" height="30" as="geometry" />
        </mxCell>
        <mxCell id="0J1x9r_SG5u2ioGs7Srl-13" value="&amp;nbsp;Device #2" style="rounded=0;whiteSpace=wrap;html=1;align=left;verticalAlign=top;fillColor=#f8cecc;strokeColor=#b85450;" vertex="1" parent="0J1x9r_SG5u2ioGs7Srl-1">
          <mxGeometry x="499" y="840" width="69" height="30" as="geometry" />
        </mxCell>
        <mxCell id="0J1x9r_SG5u2ioGs7Srl-14" value="&amp;nbsp;Device #3" style="rounded=0;whiteSpace=wrap;html=1;align=left;verticalAlign=top;fillColor=#f8cecc;strokeColor=#b85450;" vertex="1" parent="0J1x9r_SG5u2ioGs7Srl-1">
          <mxGeometry x="579" y="840" width="69" height="30" as="geometry" />
        </mxCell>
        <mxCell id="0J1x9r_SG5u2ioGs7Srl-15" value="&amp;nbsp;Device #4" style="rounded=0;whiteSpace=wrap;html=1;align=left;verticalAlign=top;fillColor=#f8cecc;strokeColor=#b85450;" vertex="1" parent="0J1x9r_SG5u2ioGs7Srl-1">
          <mxGeometry x="659" y="840" width="69" height="30" as="geometry" />
        </mxCell>
        <mxCell id="0J1x9r_SG5u2ioGs7Srl-16" value="&amp;nbsp;Device #5" style="rounded=0;whiteSpace=wrap;html=1;align=left;verticalAlign=top;fillColor=#f8cecc;strokeColor=#b85450;" vertex="1" parent="0J1x9r_SG5u2ioGs7Srl-1">
          <mxGeometry x="420" y="880" width="69" height="30" as="geometry" />
        </mxCell>
        <mxCell id="0J1x9r_SG5u2ioGs7Srl-17" value="&amp;nbsp;Device #6" style="rounded=0;whiteSpace=wrap;html=1;align=left;verticalAlign=top;fillColor=#f8cecc;strokeColor=#b85450;" vertex="1" parent="0J1x9r_SG5u2ioGs7Srl-1">
          <mxGeometry x="499" y="880" width="69" height="30" as="geometry" />
        </mxCell>
        <mxCell id="0J1x9r_SG5u2ioGs7Srl-18" value="&amp;nbsp;Device #7" style="rounded=0;whiteSpace=wrap;html=1;align=left;verticalAlign=top;fillColor=#f8cecc;strokeColor=#b85450;" vertex="1" parent="0J1x9r_SG5u2ioGs7Srl-1">
          <mxGeometry x="579" y="880" width="69" height="30" as="geometry" />
        </mxCell>
        <mxCell id="0J1x9r_SG5u2ioGs7Srl-19" value="&amp;nbsp;Device #8" style="rounded=0;whiteSpace=wrap;html=1;align=left;verticalAlign=top;fillColor=#f8cecc;strokeColor=#b85450;" vertex="1" parent="0J1x9r_SG5u2ioGs7Srl-1">
          <mxGeometry x="659" y="880" width="69" height="30" as="geometry" />
        </mxCell>
        <mxCell id="0J1x9r_SG5u2ioGs7Srl-20" value="&amp;nbsp;Object Storage Servers(OSS) #1" style="rounded=0;whiteSpace=wrap;html=1;align=left;verticalAlign=top;fillColor=#dae8fc;strokeColor=#6c8ebf;" vertex="1" parent="0J1x9r_SG5u2ioGs7Srl-1">
          <mxGeometry x="105" y="540" width="200" height="30" as="geometry" />
        </mxCell>
        <mxCell id="0J1x9r_SG5u2ioGs7Srl-21" value="&amp;nbsp;Node #3" style="rounded=0;whiteSpace=wrap;html=1;align=left;verticalAlign=top;" vertex="1" parent="0J1x9r_SG5u2ioGs7Srl-1">
          <mxGeometry x="660" y="330" width="230" height="270" as="geometry" />
        </mxCell>
        <mxCell id="0J1x9r_SG5u2ioGs7Srl-22" value="&amp;nbsp;Object Storage Servers(OSS) #3" style="rounded=0;whiteSpace=wrap;html=1;align=left;verticalAlign=top;fillColor=#dae8fc;strokeColor=#6c8ebf;" vertex="1" parent="0J1x9r_SG5u2ioGs7Srl-1">
          <mxGeometry x="682.5" y="540" width="185" height="30" as="geometry" />
        </mxCell>
        <mxCell id="0J1x9r_SG5u2ioGs7Srl-23" value="&amp;nbsp;Node #4" style="rounded=0;whiteSpace=wrap;html=1;align=left;verticalAlign=top;" vertex="1" parent="0J1x9r_SG5u2ioGs7Srl-1">
          <mxGeometry x="940" y="330" width="230" height="270" as="geometry" />
        </mxCell>
        <mxCell id="0J1x9r_SG5u2ioGs7Srl-24" value="&amp;nbsp;Object Storage Servers(OSS) #4" style="rounded=0;whiteSpace=wrap;html=1;align=left;verticalAlign=top;fillColor=#dae8fc;strokeColor=#6c8ebf;" vertex="1" parent="0J1x9r_SG5u2ioGs7Srl-1">
          <mxGeometry x="960" y="540" width="190" height="30" as="geometry" />
        </mxCell>
        <mxCell id="0J1x9r_SG5u2ioGs7Srl-26" value="&amp;nbsp;Lustre Client" style="rounded=0;whiteSpace=wrap;html=1;align=center;verticalAlign=top;fillColor=#d5e8d4;strokeColor=#82b366;" vertex="1" parent="0J1x9r_SG5u2ioGs7Srl-1">
          <mxGeometry x="105" y="370" width="200" height="25" as="geometry" />
        </mxCell>
        <mxCell id="0J1x9r_SG5u2ioGs7Srl-27" value="&amp;nbsp;Node #2" style="rounded=0;whiteSpace=wrap;html=1;align=left;verticalAlign=top;" vertex="1" parent="0J1x9r_SG5u2ioGs7Srl-1">
          <mxGeometry x="380" y="330" width="240" height="270" as="geometry" />
        </mxCell>
        <mxCell id="0J1x9r_SG5u2ioGs7Srl-28" value="&amp;nbsp;Meta Data Server(MDS)" style="rounded=0;whiteSpace=wrap;html=1;align=left;verticalAlign=top;fillColor=#DAE8FC;strokeColor=#36393d;" vertex="1" parent="0J1x9r_SG5u2ioGs7Srl-1">
          <mxGeometry x="405" y="407.5" width="190" height="122.5" as="geometry" />
        </mxCell>
        <mxCell id="0J1x9r_SG5u2ioGs7Srl-29" value="&amp;nbsp;Object Storage Servers(OSS) #2" style="rounded=0;whiteSpace=wrap;html=1;align=left;verticalAlign=top;fillColor=#dae8fc;strokeColor=#6c8ebf;" vertex="1" parent="0J1x9r_SG5u2ioGs7Srl-1">
          <mxGeometry x="405" y="540" width="190" height="30" as="geometry" />
        </mxCell>
        <mxCell id="0J1x9r_SG5u2ioGs7Srl-30" value="&amp;nbsp;Meta Data Target(MDT)" style="rounded=0;whiteSpace=wrap;html=1;align=left;verticalAlign=top;fillColor=#E1D5E7;strokeColor=#9673a6;" vertex="1" parent="0J1x9r_SG5u2ioGs7Srl-1">
          <mxGeometry x="420" y="440" width="155" height="77.5" as="geometry" />
        </mxCell>
        <mxCell id="0J1x9r_SG5u2ioGs7Srl-31" value="&lt;div style=&quot;text-align: center;&quot;&gt;&lt;span style=&quot;background-color: initial;&quot;&gt;&amp;nbsp;Device #1&amp;nbsp;&lt;/span&gt;&lt;span style=&quot;background-color: initial;&quot;&gt;(SSD)&lt;/span&gt;&lt;/div&gt;" style="rounded=0;whiteSpace=wrap;html=1;align=left;verticalAlign=top;fillColor=#f8cecc;strokeColor=#b85450;" vertex="1" parent="0J1x9r_SG5u2ioGs7Srl-1">
          <mxGeometry x="443.88" y="471.25" width="112.25" height="30" as="geometry" />
        </mxCell>
        <mxCell id="0J1x9r_SG5u2ioGs7Srl-32" value="&amp;nbsp;Lustre Client&amp;nbsp;" style="rounded=0;whiteSpace=wrap;html=1;align=center;verticalAlign=top;fillColor=#d5e8d4;strokeColor=#82b366;" vertex="1" parent="0J1x9r_SG5u2ioGs7Srl-1">
          <mxGeometry x="365" y="20" width="820" height="160" as="geometry" />
        </mxCell>
        <mxCell id="0J1x9r_SG5u2ioGs7Srl-33" value="Logical Volume #1" style="rounded=0;whiteSpace=wrap;html=1;align=center;verticalAlign=top;fillColor=#e1d5e7;strokeColor=#9673a6;" vertex="1" parent="0J1x9r_SG5u2ioGs7Srl-1">
          <mxGeometry x="385.57" y="60" width="769.43" height="100" as="geometry" />
        </mxCell>
        <mxCell id="0J1x9r_SG5u2ioGs7Srl-34" style="edgeStyle=orthogonalEdgeStyle;rounded=0;jumpStyle=arc;orthogonalLoop=1;jettySize=auto;html=1;exitX=0.45;exitY=1.033;exitDx=0;exitDy=0;exitPerimeter=0;strokeWidth=2;fillColor=#008a00;strokeColor=#005700;" edge="1" parent="0J1x9r_SG5u2ioGs7Srl-1" source="0J1x9r_SG5u2ioGs7Srl-44" target="0J1x9r_SG5u2ioGs7Srl-38">
          <mxGeometry relative="1" as="geometry">
            <mxPoint x="184.25" y="140" as="sourcePoint" />
            <Array as="points">
              <mxPoint x="469" y="270" />
              <mxPoint x="498" y="270" />
            </Array>
          </mxGeometry>
        </mxCell>
        <mxCell id="0J1x9r_SG5u2ioGs7Srl-35" value="Normal" style="shape=process;whiteSpace=wrap;html=1;backgroundOutline=1;fontSize=12;" vertex="1" parent="0J1x9r_SG5u2ioGs7Srl-1">
          <mxGeometry x="563.5" y="100" width="120" height="40" as="geometry" />
        </mxCell>
        <mxCell id="0J1x9r_SG5u2ioGs7Srl-36" value="Stripe" style="shape=process;whiteSpace=wrap;html=1;backgroundOutline=1;fontSize=12;" vertex="1" parent="0J1x9r_SG5u2ioGs7Srl-1">
          <mxGeometry x="714" y="100" width="120" height="40" as="geometry" />
        </mxCell>
        <mxCell id="0J1x9r_SG5u2ioGs7Srl-37" value="DoM" style="shape=process;whiteSpace=wrap;html=1;backgroundOutline=1;fontSize=12;" vertex="1" parent="0J1x9r_SG5u2ioGs7Srl-1">
          <mxGeometry x="860" y="100" width="120" height="40" as="geometry" />
        </mxCell>
        <mxCell id="0J1x9r_SG5u2ioGs7Srl-38" value="HSM Daemon&lt;br&gt;Archive #1" style="shape=process;whiteSpace=wrap;html=1;backgroundOutline=1;fontSize=12;" vertex="1" parent="0J1x9r_SG5u2ioGs7Srl-1">
          <mxGeometry x="405" y="355" width="185" height="40" as="geometry" />
        </mxCell>
        <mxCell id="0J1x9r_SG5u2ioGs7Srl-41" value="HSM Daemon&lt;br&gt;Archive #2" style="shape=process;whiteSpace=wrap;html=1;backgroundOutline=1;fontSize=12;" vertex="1" parent="0J1x9r_SG5u2ioGs7Srl-1">
          <mxGeometry x="963" y="355" width="184" height="40" as="geometry" />
        </mxCell>
        <mxCell id="0J1x9r_SG5u2ioGs7Srl-42" value="NFS Client" style="rounded=0;whiteSpace=wrap;html=1;align=left;verticalAlign=top;fillColor=#ffff88;strokeColor=#36393d;" vertex="1" parent="0J1x9r_SG5u2ioGs7Srl-1">
          <mxGeometry x="960" y="413.75" width="190" height="110" as="geometry" />
        </mxCell>
        <mxCell id="0J1x9r_SG5u2ioGs7Srl-43" style="edgeStyle=orthogonalEdgeStyle;rounded=0;jumpStyle=arc;orthogonalLoop=1;jettySize=auto;html=1;exitX=0.5;exitY=1;exitDx=0;exitDy=0;entryX=0.5;entryY=0;entryDx=0;entryDy=0;strokeWidth=2;fillColor=#a0522d;strokeColor=#6D1F00;" edge="1" parent="0J1x9r_SG5u2ioGs7Srl-1" source="0J1x9r_SG5u2ioGs7Srl-45" target="0J1x9r_SG5u2ioGs7Srl-41">
          <mxGeometry relative="1" as="geometry">
            <mxPoint x="790" y="140" as="sourcePoint" />
            <Array as="points">
              <mxPoint x="1075" y="270" />
              <mxPoint x="1055" y="270" />
            </Array>
          </mxGeometry>
        </mxCell>
        <mxCell id="0J1x9r_SG5u2ioGs7Srl-44" value="HSM File #1&lt;br&gt;Archive #1" style="shape=parallelogram;perimeter=parallelogramPerimeter;whiteSpace=wrap;html=1;fixedSize=1;" vertex="1" parent="0J1x9r_SG5u2ioGs7Srl-1">
          <mxGeometry x="415" y="90" width="120" height="60" as="geometry" />
        </mxCell>
        <mxCell id="0J1x9r_SG5u2ioGs7Srl-45" value="HSM File #2&lt;br&gt;Archive #2" style="shape=parallelogram;perimeter=parallelogramPerimeter;whiteSpace=wrap;html=1;fixedSize=1;" vertex="1" parent="0J1x9r_SG5u2ioGs7Srl-1">
          <mxGeometry x="1015" y="90" width="120" height="60" as="geometry" />
        </mxCell>
        <mxCell id="0J1x9r_SG5u2ioGs7Srl-46" value="&lt;font style=&quot;font-size: 12px;&quot;&gt;&lt;br&gt;Lustre FS&lt;/font&gt;" style="rounded=0;whiteSpace=wrap;html=1;align=center;verticalAlign=top;fillColor=#fff2cc;strokeColor=#d6b656;" vertex="1" parent="0J1x9r_SG5u2ioGs7Srl-1">
          <mxGeometry x="80" y="200" width="1360" height="50" as="geometry" />
        </mxCell>
        <mxCell id="0J1x9r_SG5u2ioGs7Srl-47" value="Infiniband / Ethernet Network (RDMA/TCP)" style="rounded=0;whiteSpace=wrap;html=1;fillColor=#C563D8;strokeColor=#A50040;fontColor=#ffffff;" vertex="1" parent="0J1x9r_SG5u2ioGs7Srl-1">
          <mxGeometry x="80" y="280" width="1360" height="21" as="geometry" />
        </mxCell>
        <mxCell id="8Py96KEAhmwajGARR91--3" style="edgeStyle=orthogonalEdgeStyle;rounded=0;jumpStyle=arc;orthogonalLoop=1;jettySize=auto;html=1;exitX=1;exitY=0.5;exitDx=0;exitDy=0;entryX=0;entryY=0.5;entryDx=0;entryDy=0;endArrow=classic;endFill=1;strokeWidth=1;" edge="1" parent="0J1x9r_SG5u2ioGs7Srl-1" source="0J1x9r_SG5u2ioGs7Srl-50" target="8Py96KEAhmwajGARR91--1">
          <mxGeometry relative="1" as="geometry">
            <Array as="points">
              <mxPoint x="1190" y="478" />
              <mxPoint x="1190" y="540" />
            </Array>
          </mxGeometry>
        </mxCell>
        <mxCell id="0J1x9r_SG5u2ioGs7Srl-50" value="HSM File #2&lt;br&gt;Archive #2" style="shape=parallelogram;perimeter=parallelogramPerimeter;whiteSpace=wrap;html=1;fixedSize=1;" vertex="1" parent="0J1x9r_SG5u2ioGs7Srl-1">
          <mxGeometry x="995" y="447.5" width="120" height="60" as="geometry" />
        </mxCell>
        <mxCell id="0J1x9r_SG5u2ioGs7Srl-51" style="edgeStyle=orthogonalEdgeStyle;rounded=0;jumpStyle=arc;orthogonalLoop=1;jettySize=auto;html=1;exitX=1;exitY=0.5;exitDx=0;exitDy=0;endArrow=none;endFill=0;" edge="1" parent="0J1x9r_SG5u2ioGs7Srl-1" source="0J1x9r_SG5u2ioGs7Srl-8" target="0J1x9r_SG5u2ioGs7Srl-29">
          <mxGeometry relative="1" as="geometry">
            <Array as="points">
              <mxPoint x="750" y="810" />
              <mxPoint x="750" y="630" />
              <mxPoint x="500" y="630" />
            </Array>
          </mxGeometry>
        </mxCell>
        <mxCell id="0J1x9r_SG5u2ioGs7Srl-52" style="edgeStyle=orthogonalEdgeStyle;rounded=0;jumpStyle=arc;orthogonalLoop=1;jettySize=auto;html=1;exitX=1;exitY=0.5;exitDx=0;exitDy=0;endArrow=none;endFill=0;" edge="1" parent="0J1x9r_SG5u2ioGs7Srl-1" source="0J1x9r_SG5u2ioGs7Srl-7" target="0J1x9r_SG5u2ioGs7Srl-22">
          <mxGeometry relative="1" as="geometry">
            <Array as="points">
              <mxPoint x="900" y="780" />
              <mxPoint x="900" y="630" />
              <mxPoint x="775" y="630" />
            </Array>
          </mxGeometry>
        </mxCell>
        <mxCell id="0J1x9r_SG5u2ioGs7Srl-53" style="edgeStyle=orthogonalEdgeStyle;rounded=0;jumpStyle=arc;orthogonalLoop=1;jettySize=auto;html=1;exitX=1;exitY=0.5;exitDx=0;exitDy=0;endArrow=none;endFill=0;" edge="1" parent="0J1x9r_SG5u2ioGs7Srl-1" source="0J1x9r_SG5u2ioGs7Srl-6" target="0J1x9r_SG5u2ioGs7Srl-24">
          <mxGeometry relative="1" as="geometry" />
        </mxCell>
        <mxCell id="8Py96KEAhmwajGARR91--1" value="HSM File #2&lt;br&gt;Archive #2" style="shape=parallelogram;perimeter=parallelogramPerimeter;whiteSpace=wrap;html=1;fixedSize=1;" vertex="1" parent="0J1x9r_SG5u2ioGs7Srl-1">
          <mxGeometry x="1270" y="510" width="120" height="60" as="geometry" />
        </mxCell>
      </root>
    </mxGraphModel>
  </diagram>
  <diagram name="Lustre-mody" id="r3g9V7KH4Tzb_S9_q9DY">
    <mxGraphModel dx="1662" dy="762" grid="1" gridSize="10" guides="1" tooltips="1" connect="1" arrows="1" fold="1" page="1" pageScale="1" pageWidth="827" pageHeight="1169" math="0" shadow="0">
      <root>
        <mxCell id="QS2AS5Vg-aHhhU6qaOwM-0" />
        <mxCell id="QS2AS5Vg-aHhhU6qaOwM-1" parent="QS2AS5Vg-aHhhU6qaOwM-0" />
        <mxCell id="QS2AS5Vg-aHhhU6qaOwM-2" value="&amp;nbsp;NFS Server" style="rounded=0;whiteSpace=wrap;html=1;align=left;verticalAlign=top;fillColor=#ffff88;strokeColor=#36393d;" vertex="1" parent="QS2AS5Vg-aHhhU6qaOwM-1">
          <mxGeometry x="1220" y="330" width="220" height="270" as="geometry" />
        </mxCell>
        <mxCell id="QS2AS5Vg-aHhhU6qaOwM-3" value="&amp;nbsp;Node #1&amp;nbsp;&lt;br&gt;" style="rounded=0;whiteSpace=wrap;html=1;align=left;verticalAlign=top;" vertex="1" parent="QS2AS5Vg-aHhhU6qaOwM-1">
          <mxGeometry x="80" y="330" width="250" height="400" as="geometry" />
        </mxCell>
        <mxCell id="QS2AS5Vg-aHhhU6qaOwM-4" value="&amp;nbsp;Management Server(MGS)" style="rounded=0;whiteSpace=wrap;html=1;align=left;verticalAlign=top;fillColor=#DAE8FC;strokeColor=#36393d;" vertex="1" parent="QS2AS5Vg-aHhhU6qaOwM-1">
          <mxGeometry x="105" y="410" width="200" height="120" as="geometry" />
        </mxCell>
        <mxCell id="QS2AS5Vg-aHhhU6qaOwM-5" value="&amp;nbsp;Management Target(MGT)" style="rounded=0;whiteSpace=wrap;html=1;align=left;verticalAlign=top;fillColor=#E1D5E7;strokeColor=#9673a6;" vertex="1" parent="QS2AS5Vg-aHhhU6qaOwM-1">
          <mxGeometry x="128.5" y="440" width="155" height="80" as="geometry" />
        </mxCell>
        <mxCell id="QS2AS5Vg-aHhhU6qaOwM-6" value="&lt;div style=&quot;text-align: center;&quot;&gt;High Performance Pool&lt;br&gt;&lt;/div&gt;" style="rounded=0;whiteSpace=wrap;html=1;align=left;verticalAlign=top;fillColor=#f8cecc;strokeColor=#b85450;" vertex="1" parent="QS2AS5Vg-aHhhU6qaOwM-1">
          <mxGeometry x="155" y="470" width="100" height="40" as="geometry" />
        </mxCell>
        <mxCell id="QS2AS5Vg-aHhhU6qaOwM-11" value="&amp;nbsp;Object Storage Servers(OSS) #1" style="rounded=0;whiteSpace=wrap;html=1;align=left;verticalAlign=top;fillColor=#dae8fc;strokeColor=#6c8ebf;" vertex="1" parent="QS2AS5Vg-aHhhU6qaOwM-1">
          <mxGeometry x="100" y="570" width="210" height="140" as="geometry" />
        </mxCell>
        <mxCell id="QS2AS5Vg-aHhhU6qaOwM-12" value="&amp;nbsp;Object Storage Target(OST) #1&amp;nbsp; &amp;nbsp; &amp;nbsp; &amp;nbsp; &amp;nbsp;&amp;nbsp;&amp;nbsp;[ZFS RAIDZ2]&amp;nbsp;" style="rounded=0;whiteSpace=wrap;html=1;align=center;verticalAlign=top;fillColor=#e1d5e7;strokeColor=#9673a6;" vertex="1" parent="QS2AS5Vg-aHhhU6qaOwM-1">
          <mxGeometry x="115" y="610" width="180" height="40" as="geometry" />
        </mxCell>
        <mxCell id="QS2AS5Vg-aHhhU6qaOwM-22" value="&amp;nbsp;Node #3" style="rounded=0;whiteSpace=wrap;html=1;align=left;verticalAlign=top;" vertex="1" parent="QS2AS5Vg-aHhhU6qaOwM-1">
          <mxGeometry x="660" y="330" width="230" height="400" as="geometry" />
        </mxCell>
        <mxCell id="QS2AS5Vg-aHhhU6qaOwM-24" value="&amp;nbsp;Node #4" style="rounded=0;whiteSpace=wrap;html=1;align=left;verticalAlign=top;" vertex="1" parent="QS2AS5Vg-aHhhU6qaOwM-1">
          <mxGeometry x="940" y="330" width="230" height="400" as="geometry" />
        </mxCell>
        <mxCell id="QS2AS5Vg-aHhhU6qaOwM-27" value="&amp;nbsp;Node #2" style="rounded=0;whiteSpace=wrap;html=1;align=left;verticalAlign=top;" vertex="1" parent="QS2AS5Vg-aHhhU6qaOwM-1">
          <mxGeometry x="380" y="330" width="240" height="400" as="geometry" />
        </mxCell>
        <mxCell id="QS2AS5Vg-aHhhU6qaOwM-28" value="&amp;nbsp;Meta Data Server(MDS)" style="rounded=0;whiteSpace=wrap;html=1;align=left;verticalAlign=top;fillColor=#DAE8FC;strokeColor=#36393d;" vertex="1" parent="QS2AS5Vg-aHhhU6qaOwM-1">
          <mxGeometry x="405" y="407.5" width="190" height="122.5" as="geometry" />
        </mxCell>
        <mxCell id="QS2AS5Vg-aHhhU6qaOwM-30" value="&amp;nbsp;Meta Data Target(MDT)" style="rounded=0;whiteSpace=wrap;html=1;align=left;verticalAlign=top;fillColor=#E1D5E7;strokeColor=#9673a6;" vertex="1" parent="QS2AS5Vg-aHhhU6qaOwM-1">
          <mxGeometry x="420" y="440" width="155" height="77.5" as="geometry" />
        </mxCell>
        <mxCell id="QS2AS5Vg-aHhhU6qaOwM-31" value="&lt;div style=&quot;text-align: center;&quot;&gt;High Performance Pool&lt;/div&gt;" style="rounded=0;whiteSpace=wrap;html=1;align=left;verticalAlign=top;fillColor=#f8cecc;strokeColor=#b85450;" vertex="1" parent="QS2AS5Vg-aHhhU6qaOwM-1">
          <mxGeometry x="443.88" y="471.25" width="112.25" height="38.75" as="geometry" />
        </mxCell>
        <mxCell id="QS2AS5Vg-aHhhU6qaOwM-32" value="&amp;nbsp;Lustre Client&amp;nbsp;" style="rounded=0;whiteSpace=wrap;html=1;align=center;verticalAlign=top;fillColor=#d5e8d4;strokeColor=#82b366;" vertex="1" parent="QS2AS5Vg-aHhhU6qaOwM-1">
          <mxGeometry x="365" y="20" width="820" height="160" as="geometry" />
        </mxCell>
        <mxCell id="QS2AS5Vg-aHhhU6qaOwM-33" value="Logical Volume #1" style="rounded=0;whiteSpace=wrap;html=1;align=center;verticalAlign=top;fillColor=#e1d5e7;strokeColor=#9673a6;" vertex="1" parent="QS2AS5Vg-aHhhU6qaOwM-1">
          <mxGeometry x="385.57" y="60" width="769.43" height="100" as="geometry" />
        </mxCell>
        <mxCell id="QS2AS5Vg-aHhhU6qaOwM-34" style="edgeStyle=orthogonalEdgeStyle;rounded=0;jumpStyle=arc;orthogonalLoop=1;jettySize=auto;html=1;exitX=0.45;exitY=1.033;exitDx=0;exitDy=0;exitPerimeter=0;strokeWidth=2;fillColor=#008a00;strokeColor=#005700;" edge="1" parent="QS2AS5Vg-aHhhU6qaOwM-1" source="QS2AS5Vg-aHhhU6qaOwM-42" target="QS2AS5Vg-aHhhU6qaOwM-38">
          <mxGeometry relative="1" as="geometry">
            <mxPoint x="184.25" y="140" as="sourcePoint" />
            <Array as="points">
              <mxPoint x="469" y="270" />
              <mxPoint x="498" y="270" />
            </Array>
          </mxGeometry>
        </mxCell>
        <mxCell id="QS2AS5Vg-aHhhU6qaOwM-35" value="Normal" style="shape=process;whiteSpace=wrap;html=1;backgroundOutline=1;fontSize=12;" vertex="1" parent="QS2AS5Vg-aHhhU6qaOwM-1">
          <mxGeometry x="563.5" y="100" width="120" height="40" as="geometry" />
        </mxCell>
        <mxCell id="QS2AS5Vg-aHhhU6qaOwM-36" value="Stripe" style="shape=process;whiteSpace=wrap;html=1;backgroundOutline=1;fontSize=12;" vertex="1" parent="QS2AS5Vg-aHhhU6qaOwM-1">
          <mxGeometry x="714" y="100" width="120" height="40" as="geometry" />
        </mxCell>
        <mxCell id="QS2AS5Vg-aHhhU6qaOwM-37" value="DoM" style="shape=process;whiteSpace=wrap;html=1;backgroundOutline=1;fontSize=12;" vertex="1" parent="QS2AS5Vg-aHhhU6qaOwM-1">
          <mxGeometry x="860" y="100" width="120" height="40" as="geometry" />
        </mxCell>
        <mxCell id="QS2AS5Vg-aHhhU6qaOwM-38" value="HSM Daemon&lt;br&gt;Archive #1" style="shape=process;whiteSpace=wrap;html=1;backgroundOutline=1;fontSize=12;" vertex="1" parent="QS2AS5Vg-aHhhU6qaOwM-1">
          <mxGeometry x="405" y="355" width="185" height="40" as="geometry" />
        </mxCell>
        <mxCell id="QS2AS5Vg-aHhhU6qaOwM-39" value="HSM Daemon&lt;br&gt;Archive #2" style="shape=process;whiteSpace=wrap;html=1;backgroundOutline=1;fontSize=12;" vertex="1" parent="QS2AS5Vg-aHhhU6qaOwM-1">
          <mxGeometry x="963" y="355" width="184" height="40" as="geometry" />
        </mxCell>
        <mxCell id="QS2AS5Vg-aHhhU6qaOwM-40" value="NFS Client" style="rounded=0;whiteSpace=wrap;html=1;align=left;verticalAlign=top;fillColor=#ffff88;strokeColor=#36393d;" vertex="1" parent="QS2AS5Vg-aHhhU6qaOwM-1">
          <mxGeometry x="960" y="413.75" width="190" height="110" as="geometry" />
        </mxCell>
        <mxCell id="QS2AS5Vg-aHhhU6qaOwM-41" style="edgeStyle=orthogonalEdgeStyle;rounded=0;jumpStyle=arc;orthogonalLoop=1;jettySize=auto;html=1;exitX=0.5;exitY=1;exitDx=0;exitDy=0;entryX=0.5;entryY=0;entryDx=0;entryDy=0;strokeWidth=2;fillColor=#a0522d;strokeColor=#6D1F00;" edge="1" parent="QS2AS5Vg-aHhhU6qaOwM-1" source="QS2AS5Vg-aHhhU6qaOwM-43" target="QS2AS5Vg-aHhhU6qaOwM-39">
          <mxGeometry relative="1" as="geometry">
            <mxPoint x="790" y="140" as="sourcePoint" />
            <Array as="points">
              <mxPoint x="1075" y="270" />
              <mxPoint x="1055" y="270" />
            </Array>
          </mxGeometry>
        </mxCell>
        <mxCell id="QS2AS5Vg-aHhhU6qaOwM-42" value="HSM File #1&lt;br&gt;Archive #1" style="shape=parallelogram;perimeter=parallelogramPerimeter;whiteSpace=wrap;html=1;fixedSize=1;" vertex="1" parent="QS2AS5Vg-aHhhU6qaOwM-1">
          <mxGeometry x="415" y="90" width="120" height="60" as="geometry" />
        </mxCell>
        <mxCell id="QS2AS5Vg-aHhhU6qaOwM-43" value="HSM File #2&lt;br&gt;Archive #2" style="shape=parallelogram;perimeter=parallelogramPerimeter;whiteSpace=wrap;html=1;fixedSize=1;" vertex="1" parent="QS2AS5Vg-aHhhU6qaOwM-1">
          <mxGeometry x="1015" y="90" width="120" height="60" as="geometry" />
        </mxCell>
        <mxCell id="QS2AS5Vg-aHhhU6qaOwM-44" value="&lt;font style=&quot;font-size: 12px;&quot;&gt;&lt;br&gt;Lustre FS&lt;/font&gt;" style="rounded=0;whiteSpace=wrap;html=1;align=center;verticalAlign=top;fillColor=#fff2cc;strokeColor=#d6b656;" vertex="1" parent="QS2AS5Vg-aHhhU6qaOwM-1">
          <mxGeometry x="80" y="200" width="1360" height="50" as="geometry" />
        </mxCell>
        <mxCell id="QS2AS5Vg-aHhhU6qaOwM-45" value="Infiniband / Ethernet Network (RDMA/TCP)" style="rounded=0;whiteSpace=wrap;html=1;fillColor=#C563D8;strokeColor=#A50040;fontColor=#ffffff;" vertex="1" parent="QS2AS5Vg-aHhhU6qaOwM-1">
          <mxGeometry x="80" y="280" width="1360" height="21" as="geometry" />
        </mxCell>
        <mxCell id="QS2AS5Vg-aHhhU6qaOwM-46" style="edgeStyle=orthogonalEdgeStyle;rounded=0;jumpStyle=arc;orthogonalLoop=1;jettySize=auto;html=1;exitX=1;exitY=0.5;exitDx=0;exitDy=0;entryX=0;entryY=0.5;entryDx=0;entryDy=0;endArrow=classic;endFill=1;strokeWidth=1;" edge="1" parent="QS2AS5Vg-aHhhU6qaOwM-1" source="QS2AS5Vg-aHhhU6qaOwM-47" target="QS2AS5Vg-aHhhU6qaOwM-51">
          <mxGeometry relative="1" as="geometry">
            <Array as="points">
              <mxPoint x="1190" y="478" />
              <mxPoint x="1190" y="540" />
            </Array>
          </mxGeometry>
        </mxCell>
        <mxCell id="QS2AS5Vg-aHhhU6qaOwM-47" value="HSM File #2&lt;br&gt;Archive #2" style="shape=parallelogram;perimeter=parallelogramPerimeter;whiteSpace=wrap;html=1;fixedSize=1;" vertex="1" parent="QS2AS5Vg-aHhhU6qaOwM-1">
          <mxGeometry x="995" y="447.5" width="120" height="60" as="geometry" />
        </mxCell>
        <mxCell id="QS2AS5Vg-aHhhU6qaOwM-51" value="HSM File #2&lt;br&gt;Archive #2" style="shape=parallelogram;perimeter=parallelogramPerimeter;whiteSpace=wrap;html=1;fixedSize=1;" vertex="1" parent="QS2AS5Vg-aHhhU6qaOwM-1">
          <mxGeometry x="1270" y="510" width="120" height="60" as="geometry" />
        </mxCell>
        <mxCell id="AokUlT2AXiG5cTwrNEaq-0" value="&lt;div style=&quot;text-align: left;&quot;&gt;&lt;span style=&quot;background-color: initial;&quot;&gt;Low Performance Pool&lt;/span&gt;&lt;br&gt;&lt;/div&gt;" style="rounded=0;whiteSpace=wrap;html=1;align=center;verticalAlign=top;fillColor=#f8cecc;strokeColor=#b85450;" vertex="1" parent="QS2AS5Vg-aHhhU6qaOwM-1">
          <mxGeometry x="115" y="660" width="180" height="30" as="geometry" />
        </mxCell>
        <mxCell id="AokUlT2AXiG5cTwrNEaq-3" value="&amp;nbsp;Object Storage Servers(OSS) #2" style="rounded=0;whiteSpace=wrap;html=1;align=left;verticalAlign=top;fillColor=#dae8fc;strokeColor=#6c8ebf;" vertex="1" parent="QS2AS5Vg-aHhhU6qaOwM-1">
          <mxGeometry x="395.01" y="570" width="210" height="140" as="geometry" />
        </mxCell>
        <mxCell id="AokUlT2AXiG5cTwrNEaq-4" value="&amp;nbsp;Object Storage Target(OST) #2&amp;nbsp; &amp;nbsp; &amp;nbsp;[ZFS RAIDZ2]&amp;nbsp;" style="rounded=0;whiteSpace=wrap;html=1;align=center;verticalAlign=top;fillColor=#e1d5e7;strokeColor=#9673a6;" vertex="1" parent="QS2AS5Vg-aHhhU6qaOwM-1">
          <mxGeometry x="410.01" y="610" width="180" height="40" as="geometry" />
        </mxCell>
        <mxCell id="AokUlT2AXiG5cTwrNEaq-5" value="&lt;div style=&quot;text-align: left;&quot;&gt;&lt;span style=&quot;background-color: initial;&quot;&gt;Low Performance Pool&lt;/span&gt;&lt;br&gt;&lt;/div&gt;" style="rounded=0;whiteSpace=wrap;html=1;align=center;verticalAlign=top;fillColor=#f8cecc;strokeColor=#b85450;" vertex="1" parent="QS2AS5Vg-aHhhU6qaOwM-1">
          <mxGeometry x="410.01" y="660" width="180" height="30" as="geometry" />
        </mxCell>
        <mxCell id="AokUlT2AXiG5cTwrNEaq-6" value="&amp;nbsp;Object Storage Servers(OSS) #3" style="rounded=0;whiteSpace=wrap;html=1;align=left;verticalAlign=top;fillColor=#dae8fc;strokeColor=#6c8ebf;" vertex="1" parent="QS2AS5Vg-aHhhU6qaOwM-1">
          <mxGeometry x="669" y="570" width="210" height="140" as="geometry" />
        </mxCell>
        <mxCell id="AokUlT2AXiG5cTwrNEaq-7" value="&amp;nbsp;Object Storage Target(OST) #3&amp;nbsp; &amp;nbsp; &amp;nbsp;[ZFS RAIDZ2]&amp;nbsp;" style="rounded=0;whiteSpace=wrap;html=1;align=center;verticalAlign=top;fillColor=#e1d5e7;strokeColor=#9673a6;" vertex="1" parent="QS2AS5Vg-aHhhU6qaOwM-1">
          <mxGeometry x="684" y="610" width="180" height="40" as="geometry" />
        </mxCell>
        <mxCell id="AokUlT2AXiG5cTwrNEaq-8" value="&lt;div style=&quot;text-align: left;&quot;&gt;&lt;span style=&quot;background-color: initial;&quot;&gt;Low Performance Pool&lt;/span&gt;&lt;br&gt;&lt;/div&gt;" style="rounded=0;whiteSpace=wrap;html=1;align=center;verticalAlign=top;fillColor=#f8cecc;strokeColor=#b85450;" vertex="1" parent="QS2AS5Vg-aHhhU6qaOwM-1">
          <mxGeometry x="684" y="660" width="180" height="30" as="geometry" />
        </mxCell>
        <mxCell id="AokUlT2AXiG5cTwrNEaq-9" value="&amp;nbsp;Object Storage Servers(OSS) #4" style="rounded=0;whiteSpace=wrap;html=1;align=left;verticalAlign=top;fillColor=#dae8fc;strokeColor=#6c8ebf;" vertex="1" parent="QS2AS5Vg-aHhhU6qaOwM-1">
          <mxGeometry x="950" y="570" width="210" height="140" as="geometry" />
        </mxCell>
        <mxCell id="AokUlT2AXiG5cTwrNEaq-10" value="&amp;nbsp;Object Storage Target(OST) #4&amp;nbsp; &amp;nbsp; &amp;nbsp;[ZFS RAIDZ2]&amp;nbsp;" style="rounded=0;whiteSpace=wrap;html=1;align=center;verticalAlign=top;fillColor=#e1d5e7;strokeColor=#9673a6;" vertex="1" parent="QS2AS5Vg-aHhhU6qaOwM-1">
          <mxGeometry x="965" y="610" width="180" height="40" as="geometry" />
        </mxCell>
        <mxCell id="AokUlT2AXiG5cTwrNEaq-11" value="&lt;div style=&quot;text-align: left;&quot;&gt;&lt;span style=&quot;background-color: initial;&quot;&gt;Low Performance Pool&lt;/span&gt;&lt;br&gt;&lt;/div&gt;" style="rounded=0;whiteSpace=wrap;html=1;align=center;verticalAlign=top;fillColor=#f8cecc;strokeColor=#b85450;" vertex="1" parent="QS2AS5Vg-aHhhU6qaOwM-1">
          <mxGeometry x="965" y="660" width="180" height="30" as="geometry" />
        </mxCell>
        <mxCell id="AokUlT2AXiG5cTwrNEaq-14" style="edgeStyle=orthogonalEdgeStyle;rounded=0;jumpStyle=arc;orthogonalLoop=1;jettySize=auto;html=1;exitX=1;exitY=0.5;exitDx=0;exitDy=0;entryX=0;entryY=0.5;entryDx=0;entryDy=0;endArrow=classic;endFill=1;strokeWidth=1;" edge="1" parent="QS2AS5Vg-aHhhU6qaOwM-1" source="QS2AS5Vg-aHhhU6qaOwM-31" target="AokUlT2AXiG5cTwrNEaq-11">
          <mxGeometry relative="1" as="geometry">
            <Array as="points">
              <mxPoint x="910" y="491" />
              <mxPoint x="910" y="675" />
            </Array>
          </mxGeometry>
        </mxCell>
        <mxCell id="AokUlT2AXiG5cTwrNEaq-13" style="edgeStyle=orthogonalEdgeStyle;rounded=0;jumpStyle=arc;orthogonalLoop=1;jettySize=auto;html=1;exitX=1;exitY=0.5;exitDx=0;exitDy=0;entryX=0;entryY=0.5;entryDx=0;entryDy=0;endArrow=classic;endFill=1;strokeWidth=1;" edge="1" parent="QS2AS5Vg-aHhhU6qaOwM-1" source="QS2AS5Vg-aHhhU6qaOwM-6" target="AokUlT2AXiG5cTwrNEaq-5">
          <mxGeometry relative="1" as="geometry">
            <Array as="points">
              <mxPoint x="350" y="490" />
              <mxPoint x="350" y="675" />
            </Array>
          </mxGeometry>
        </mxCell>
      </root>
    </mxGraphModel>
  </diagram>
  <diagram id="fS_jw96vKjEwGfNcRvxQ" name="Page-1">
    <mxGraphModel dx="1662" dy="762" grid="1" gridSize="10" guides="1" tooltips="1" connect="1" arrows="1" fold="1" page="1" pageScale="1" pageWidth="827" pageHeight="1169" math="0" shadow="0">
      <root>
        <mxCell id="0" />
        <mxCell id="1" parent="0" />
        <mxCell id="qtY3qh8mTVoA4nLyecrv-3" value="&amp;nbsp;Node #1&amp;nbsp;&lt;br&gt;" style="rounded=0;whiteSpace=wrap;html=1;align=left;verticalAlign=top;" parent="1" vertex="1">
          <mxGeometry x="80" y="330" width="250" height="270" as="geometry" />
        </mxCell>
        <mxCell id="ozoCwilBdho515e5NpQp-2" value="&amp;nbsp;Management Server(MGS)" style="rounded=0;whiteSpace=wrap;html=1;align=left;verticalAlign=top;fillColor=#dae8fc;strokeColor=#6c8ebf;" parent="1" vertex="1">
          <mxGeometry x="105" y="410" width="200" height="120" as="geometry" />
        </mxCell>
        <mxCell id="ozoCwilBdho515e5NpQp-18" value="&amp;nbsp;Management Target(MGT)" style="rounded=0;whiteSpace=wrap;html=1;align=left;verticalAlign=top;fillColor=#e1d5e7;strokeColor=#9673a6;" parent="1" vertex="1">
          <mxGeometry x="128.5" y="440" width="155" height="80" as="geometry" />
        </mxCell>
        <mxCell id="ozoCwilBdho515e5NpQp-19" value="&lt;div style=&quot;text-align: center;&quot;&gt;&lt;span style=&quot;background-color: initial;&quot;&gt;&amp;nbsp;Device #1&amp;nbsp;&lt;/span&gt;&lt;span style=&quot;background-color: initial;&quot;&gt;(SSD)&lt;/span&gt;&lt;/div&gt;" style="rounded=0;whiteSpace=wrap;html=1;align=left;verticalAlign=top;fillColor=#f8cecc;strokeColor=#b85450;" parent="1" vertex="1">
          <mxGeometry x="158.5" y="470" width="100" height="32.5" as="geometry" />
        </mxCell>
        <mxCell id="tVN6Rmb8Bz77yazrLn0k-1" value="&amp;nbsp;Object Storage Servers(OSS) #4" style="rounded=0;whiteSpace=wrap;html=1;align=left;verticalAlign=top;fillColor=#dae8fc;strokeColor=#6c8ebf;" parent="1" vertex="1">
          <mxGeometry x="318.5" y="660" width="400" height="180" as="geometry" />
        </mxCell>
        <mxCell id="tVN6Rmb8Bz77yazrLn0k-2" value="&amp;nbsp;Object Storage Servers(OSS) #3" style="rounded=0;whiteSpace=wrap;html=1;align=left;verticalAlign=top;fillColor=#dae8fc;strokeColor=#6c8ebf;" parent="1" vertex="1">
          <mxGeometry x="288.5" y="690" width="400" height="180" as="geometry" />
        </mxCell>
        <mxCell id="tVN6Rmb8Bz77yazrLn0k-3" value="&amp;nbsp;Object Storage Servers(OSS) #2" style="rounded=0;whiteSpace=wrap;html=1;align=left;verticalAlign=top;fillColor=#dae8fc;strokeColor=#6c8ebf;" parent="1" vertex="1">
          <mxGeometry x="258.5" y="720" width="400" height="180" as="geometry" />
        </mxCell>
        <mxCell id="tVN6Rmb8Bz77yazrLn0k-37" style="edgeStyle=orthogonalEdgeStyle;rounded=0;orthogonalLoop=1;jettySize=auto;html=1;exitX=0;exitY=0.5;exitDx=0;exitDy=0;fontSize=12;endArrow=none;endFill=0;" parent="1" source="tVN6Rmb8Bz77yazrLn0k-4" target="tVN6Rmb8Bz77yazrLn0k-14" edge="1">
          <mxGeometry relative="1" as="geometry" />
        </mxCell>
        <mxCell id="tVN6Rmb8Bz77yazrLn0k-4" value="&amp;nbsp;Object Storage Servers(OSS) #1" style="rounded=0;whiteSpace=wrap;html=1;align=left;verticalAlign=top;fillColor=#dae8fc;strokeColor=#6c8ebf;" parent="1" vertex="1">
          <mxGeometry x="230" y="750" width="400" height="180" as="geometry" />
        </mxCell>
        <mxCell id="tVN6Rmb8Bz77yazrLn0k-5" value="&amp;nbsp;Object Storage Target(OST) #1&amp;nbsp; &amp;nbsp; &amp;nbsp; &amp;nbsp; &amp;nbsp; &amp;nbsp; &amp;nbsp; &amp;nbsp; &amp;nbsp; &amp;nbsp; &amp;nbsp; &amp;nbsp; &amp;nbsp; &amp;nbsp; &amp;nbsp; &amp;nbsp; [ZFS RAIDZ2]&amp;nbsp;" style="rounded=0;whiteSpace=wrap;html=1;align=left;verticalAlign=top;fillColor=#e1d5e7;strokeColor=#9673a6;" parent="1" vertex="1">
          <mxGeometry x="250" y="800" width="360" height="120" as="geometry" />
        </mxCell>
        <mxCell id="tVN6Rmb8Bz77yazrLn0k-6" value="&amp;nbsp;Device #1" style="rounded=0;whiteSpace=wrap;html=1;align=left;verticalAlign=top;fillColor=#f8cecc;strokeColor=#b85450;" parent="1" vertex="1">
          <mxGeometry x="280" y="840" width="69" height="30" as="geometry" />
        </mxCell>
        <mxCell id="tVN6Rmb8Bz77yazrLn0k-7" value="&amp;nbsp;Device #2" style="rounded=0;whiteSpace=wrap;html=1;align=left;verticalAlign=top;fillColor=#f8cecc;strokeColor=#b85450;" parent="1" vertex="1">
          <mxGeometry x="359" y="840" width="69" height="30" as="geometry" />
        </mxCell>
        <mxCell id="tVN6Rmb8Bz77yazrLn0k-8" value="&amp;nbsp;Device #3" style="rounded=0;whiteSpace=wrap;html=1;align=left;verticalAlign=top;fillColor=#f8cecc;strokeColor=#b85450;" parent="1" vertex="1">
          <mxGeometry x="439" y="840" width="69" height="30" as="geometry" />
        </mxCell>
        <mxCell id="tVN6Rmb8Bz77yazrLn0k-9" value="&amp;nbsp;Device #4" style="rounded=0;whiteSpace=wrap;html=1;align=left;verticalAlign=top;fillColor=#f8cecc;strokeColor=#b85450;" parent="1" vertex="1">
          <mxGeometry x="519" y="840" width="69" height="30" as="geometry" />
        </mxCell>
        <mxCell id="tVN6Rmb8Bz77yazrLn0k-10" value="&amp;nbsp;Device #5" style="rounded=0;whiteSpace=wrap;html=1;align=left;verticalAlign=top;fillColor=#f8cecc;strokeColor=#b85450;" parent="1" vertex="1">
          <mxGeometry x="280" y="880" width="69" height="30" as="geometry" />
        </mxCell>
        <mxCell id="tVN6Rmb8Bz77yazrLn0k-11" value="&amp;nbsp;Device #6" style="rounded=0;whiteSpace=wrap;html=1;align=left;verticalAlign=top;fillColor=#f8cecc;strokeColor=#b85450;" parent="1" vertex="1">
          <mxGeometry x="359" y="880" width="69" height="30" as="geometry" />
        </mxCell>
        <mxCell id="tVN6Rmb8Bz77yazrLn0k-12" value="&amp;nbsp;Device #7" style="rounded=0;whiteSpace=wrap;html=1;align=left;verticalAlign=top;fillColor=#f8cecc;strokeColor=#b85450;" parent="1" vertex="1">
          <mxGeometry x="439" y="880" width="69" height="30" as="geometry" />
        </mxCell>
        <mxCell id="tVN6Rmb8Bz77yazrLn0k-13" value="&amp;nbsp;Device #8" style="rounded=0;whiteSpace=wrap;html=1;align=left;verticalAlign=top;fillColor=#f8cecc;strokeColor=#b85450;" parent="1" vertex="1">
          <mxGeometry x="519" y="880" width="69" height="30" as="geometry" />
        </mxCell>
        <mxCell id="tVN6Rmb8Bz77yazrLn0k-14" value="&amp;nbsp;Object Storage Servers(OSS) #1" style="rounded=0;whiteSpace=wrap;html=1;align=left;verticalAlign=top;fillColor=#dae8fc;strokeColor=#6c8ebf;" parent="1" vertex="1">
          <mxGeometry x="105" y="540" width="200" height="30" as="geometry" />
        </mxCell>
        <mxCell id="tVN6Rmb8Bz77yazrLn0k-16" value="&amp;nbsp;Node #3" style="rounded=0;whiteSpace=wrap;html=1;align=left;verticalAlign=top;" parent="1" vertex="1">
          <mxGeometry x="660" y="330" width="230" height="160" as="geometry" />
        </mxCell>
        <mxCell id="tVN6Rmb8Bz77yazrLn0k-18" value="&amp;nbsp;Object Storage Servers(OSS) #3" style="rounded=0;whiteSpace=wrap;html=1;align=left;verticalAlign=top;fillColor=#dae8fc;strokeColor=#6c8ebf;" parent="1" vertex="1">
          <mxGeometry x="685" y="450" width="185" height="30" as="geometry" />
        </mxCell>
        <mxCell id="tVN6Rmb8Bz77yazrLn0k-19" value="&amp;nbsp;Node #4" style="rounded=0;whiteSpace=wrap;html=1;align=left;verticalAlign=top;" parent="1" vertex="1">
          <mxGeometry x="660" y="500" width="230" height="100" as="geometry" />
        </mxCell>
        <mxCell id="tVN6Rmb8Bz77yazrLn0k-20" value="&amp;nbsp;Object Storage Servers(OSS) #4" style="rounded=0;whiteSpace=wrap;html=1;align=left;verticalAlign=top;fillColor=#dae8fc;strokeColor=#6c8ebf;" parent="1" vertex="1">
          <mxGeometry x="685" y="540" width="190" height="30" as="geometry" />
        </mxCell>
        <mxCell id="tVN6Rmb8Bz77yazrLn0k-76" style="edgeStyle=orthogonalEdgeStyle;shape=link;rounded=0;orthogonalLoop=1;jettySize=auto;html=1;exitX=0;exitY=0.5;exitDx=0;exitDy=0;entryX=0;entryY=0.5;entryDx=0;entryDy=0;fontSize=12;endArrow=none;endFill=0;" parent="1" source="tVN6Rmb8Bz77yazrLn0k-29" target="tVN6Rmb8Bz77yazrLn0k-45" edge="1">
          <mxGeometry relative="1" as="geometry">
            <Array as="points">
              <mxPoint x="50" y="383" />
              <mxPoint x="50" y="95" />
            </Array>
          </mxGeometry>
        </mxCell>
        <mxCell id="tVN6Rmb8Bz77yazrLn0k-29" value="&amp;nbsp;Lustre Client Server" style="rounded=0;whiteSpace=wrap;html=1;align=center;verticalAlign=top;fillColor=#d5e8d4;strokeColor=#82b366;" parent="1" vertex="1">
          <mxGeometry x="105" y="370" width="200" height="25" as="geometry" />
        </mxCell>
        <mxCell id="tVN6Rmb8Bz77yazrLn0k-31" value="&amp;nbsp;Node #2" style="rounded=0;whiteSpace=wrap;html=1;align=left;verticalAlign=top;" parent="1" vertex="1">
          <mxGeometry x="380" y="330" width="240" height="270" as="geometry" />
        </mxCell>
        <mxCell id="tVN6Rmb8Bz77yazrLn0k-32" value="&amp;nbsp;Meta Data Server(MDS)" style="rounded=0;whiteSpace=wrap;html=1;align=left;verticalAlign=top;fillColor=#dae8fc;strokeColor=#6c8ebf;" parent="1" vertex="1">
          <mxGeometry x="405" y="407.5" width="190" height="122.5" as="geometry" />
        </mxCell>
        <mxCell id="tVN6Rmb8Bz77yazrLn0k-33" value="&amp;nbsp;Object Storage Servers(OSS) #2" style="rounded=0;whiteSpace=wrap;html=1;align=left;verticalAlign=top;fillColor=#dae8fc;strokeColor=#6c8ebf;" parent="1" vertex="1">
          <mxGeometry x="405" y="540" width="190" height="30" as="geometry" />
        </mxCell>
        <mxCell id="tVN6Rmb8Bz77yazrLn0k-34" value="&amp;nbsp;Meta Data Target(MDT)" style="rounded=0;whiteSpace=wrap;html=1;align=left;verticalAlign=top;fillColor=#e1d5e7;strokeColor=#9673a6;" parent="1" vertex="1">
          <mxGeometry x="420" y="440" width="155" height="77.5" as="geometry" />
        </mxCell>
        <mxCell id="tVN6Rmb8Bz77yazrLn0k-35" value="&lt;div style=&quot;text-align: center;&quot;&gt;&lt;span style=&quot;background-color: initial;&quot;&gt;&amp;nbsp;Device #1&amp;nbsp;&lt;/span&gt;&lt;span style=&quot;background-color: initial;&quot;&gt;(SSD)&lt;/span&gt;&lt;/div&gt;" style="rounded=0;whiteSpace=wrap;html=1;align=left;verticalAlign=top;fillColor=#f8cecc;strokeColor=#b85450;" parent="1" vertex="1">
          <mxGeometry x="445" y="470" width="112.25" height="30" as="geometry" />
        </mxCell>
        <mxCell id="tVN6Rmb8Bz77yazrLn0k-42" style="edgeStyle=orthogonalEdgeStyle;rounded=0;orthogonalLoop=1;jettySize=auto;html=1;exitX=1;exitY=0.5;exitDx=0;exitDy=0;entryX=1;entryY=0.5;entryDx=0;entryDy=0;fontSize=12;endArrow=none;endFill=0;jumpStyle=arc;" parent="1" source="tVN6Rmb8Bz77yazrLn0k-1" target="tVN6Rmb8Bz77yazrLn0k-20" edge="1">
          <mxGeometry relative="1" as="geometry">
            <Array as="points">
              <mxPoint x="920" y="750" />
              <mxPoint x="920" y="555" />
            </Array>
          </mxGeometry>
        </mxCell>
        <mxCell id="tVN6Rmb8Bz77yazrLn0k-43" style="edgeStyle=orthogonalEdgeStyle;rounded=0;orthogonalLoop=1;jettySize=auto;html=1;exitX=1;exitY=0.5;exitDx=0;exitDy=0;fontSize=12;endArrow=none;endFill=0;jumpStyle=arc;" parent="1" source="tVN6Rmb8Bz77yazrLn0k-3" target="tVN6Rmb8Bz77yazrLn0k-33" edge="1">
          <mxGeometry relative="1" as="geometry">
            <Array as="points">
              <mxPoint x="790" y="810" />
              <mxPoint x="790" y="630" />
              <mxPoint x="640" y="630" />
              <mxPoint x="640" y="555" />
            </Array>
          </mxGeometry>
        </mxCell>
        <mxCell id="tVN6Rmb8Bz77yazrLn0k-45" value="&amp;nbsp;Lustre Client Server" style="rounded=0;whiteSpace=wrap;html=1;align=center;verticalAlign=top;fillColor=#d5e8d4;strokeColor=#82b366;" parent="1" vertex="1">
          <mxGeometry x="80" y="20" width="820" height="160" as="geometry" />
        </mxCell>
        <mxCell id="tVN6Rmb8Bz77yazrLn0k-66" value="Logical Volume #1" style="rounded=0;whiteSpace=wrap;html=1;align=center;verticalAlign=top;fillColor=#e1d5e7;strokeColor=#9673a6;" parent="1" vertex="1">
          <mxGeometry x="100.57" y="60" width="769.43" height="100" as="geometry" />
        </mxCell>
        <mxCell id="tVN6Rmb8Bz77yazrLn0k-65" value="HSM&lt;br&gt;Archive #1" style="shape=process;whiteSpace=wrap;html=1;backgroundOutline=1;fontSize=12;" parent="1" vertex="1">
          <mxGeometry x="128.5" y="100" width="111.5" height="40" as="geometry" />
        </mxCell>
        <mxCell id="tVN6Rmb8Bz77yazrLn0k-77" value="Normal" style="shape=process;whiteSpace=wrap;html=1;backgroundOutline=1;fontSize=12;" parent="1" vertex="1">
          <mxGeometry x="278.5" y="100" width="120" height="40" as="geometry" />
        </mxCell>
        <mxCell id="tVN6Rmb8Bz77yazrLn0k-78" value="Stripe" style="shape=process;whiteSpace=wrap;html=1;backgroundOutline=1;fontSize=12;" parent="1" vertex="1">
          <mxGeometry x="429" y="100" width="120" height="40" as="geometry" />
        </mxCell>
        <mxCell id="tVN6Rmb8Bz77yazrLn0k-79" value="DoM" style="shape=process;whiteSpace=wrap;html=1;backgroundOutline=1;fontSize=12;" parent="1" vertex="1">
          <mxGeometry x="575" y="100" width="120" height="40" as="geometry" />
        </mxCell>
        <mxCell id="tVN6Rmb8Bz77yazrLn0k-80" value="HSM Daemon&lt;br&gt;Archive #1" style="shape=process;whiteSpace=wrap;html=1;backgroundOutline=1;fontSize=12;" parent="1" vertex="1">
          <mxGeometry x="405" y="355" width="185" height="40" as="geometry" />
        </mxCell>
        <mxCell id="tVN6Rmb8Bz77yazrLn0k-81" value="&amp;nbsp;NFS Server" style="rounded=0;whiteSpace=wrap;html=1;align=left;verticalAlign=top;fillColor=#ffff88;strokeColor=#36393d;" parent="1" vertex="1">
          <mxGeometry x="685" y="410" width="185" height="30" as="geometry" />
        </mxCell>
        <mxCell id="tVN6Rmb8Bz77yazrLn0k-82" value="HSM Daemon&lt;br&gt;Archive #2" style="shape=process;whiteSpace=wrap;html=1;backgroundOutline=1;fontSize=12;" parent="1" vertex="1">
          <mxGeometry x="685" y="355" width="184" height="40" as="geometry" />
        </mxCell>
        <mxCell id="tVN6Rmb8Bz77yazrLn0k-41" style="edgeStyle=orthogonalEdgeStyle;rounded=0;orthogonalLoop=1;jettySize=auto;html=1;exitX=1;exitY=0.5;exitDx=0;exitDy=0;entryX=1;entryY=0.5;entryDx=0;entryDy=0;fontSize=12;endArrow=none;endFill=0;jumpStyle=arc;" parent="1" source="tVN6Rmb8Bz77yazrLn0k-2" target="tVN6Rmb8Bz77yazrLn0k-18" edge="1">
          <mxGeometry relative="1" as="geometry">
            <Array as="points">
              <mxPoint x="940" y="780" />
              <mxPoint x="940" y="465" />
            </Array>
          </mxGeometry>
        </mxCell>
        <mxCell id="tVN6Rmb8Bz77yazrLn0k-88" style="edgeStyle=orthogonalEdgeStyle;shape=link;rounded=0;orthogonalLoop=1;jettySize=auto;html=1;exitX=1;exitY=0.5;exitDx=0;exitDy=0;entryX=1;entryY=0.5;entryDx=0;entryDy=0;fontSize=12;endArrow=none;endFill=0;" parent="1" source="tVN6Rmb8Bz77yazrLn0k-86" target="tVN6Rmb8Bz77yazrLn0k-81" edge="1">
          <mxGeometry relative="1" as="geometry">
            <Array as="points">
              <mxPoint x="880" y="115" />
              <mxPoint x="880" y="425" />
            </Array>
          </mxGeometry>
        </mxCell>
        <mxCell id="tVN6Rmb8Bz77yazrLn0k-86" value="NFS Client" style="rounded=0;whiteSpace=wrap;html=1;align=center;verticalAlign=top;fillColor=#ffff88;strokeColor=#36393d;" parent="1" vertex="1">
          <mxGeometry x="730" y="80" width="131.5" height="70" as="geometry" />
        </mxCell>
        <mxCell id="tVN6Rmb8Bz77yazrLn0k-44" value="Infiniband / Ethernet Network (RDMA/TCP)" style="rounded=0;whiteSpace=wrap;html=1;fillColor=#C563D8;strokeColor=#A50040;fontColor=#ffffff;" parent="1" vertex="1">
          <mxGeometry x="80" y="280" width="820" height="21" as="geometry" />
        </mxCell>
        <mxCell id="tVN6Rmb8Bz77yazrLn0k-26" value="&lt;font style=&quot;font-size: 12px;&quot;&gt;&lt;br&gt;Lustre FS&lt;/font&gt;" style="rounded=0;whiteSpace=wrap;html=1;align=center;verticalAlign=top;fillColor=#fff2cc;strokeColor=#d6b656;" parent="1" vertex="1">
          <mxGeometry x="80" y="200" width="820" height="50" as="geometry" />
        </mxCell>
        <mxCell id="tVN6Rmb8Bz77yazrLn0k-89" value="HSM&lt;br&gt;Archive #2" style="shape=process;whiteSpace=wrap;html=1;backgroundOutline=1;fontSize=12;" parent="1" vertex="1">
          <mxGeometry x="740" y="110" width="111.5" height="30" as="geometry" />
        </mxCell>
      </root>
    </mxGraphModel>
  </diagram>
</mxfile>
